<svg xmlns="http://www.w3.org/2000/svg" xmlns:xlink="http://www.w3.org/1999/xlink" viewBox="0 0 128.71 212.73"><defs><style>.cls-1,.cls-4{fill:none;}.cls-2,.cls-5{fill:#74818c;}.cls-3{clip-path:url(#clip-path);}.cls-4{stroke:#74818c;stroke-miterlimit:10;stroke-width:14px;}.cls-5{font-size:40px;font-family:LongShot, Long Shot;}.cls-6{font-family:MyriadPro-Regular, Myriad Pro;}.cls-7{letter-spacing:0em;}</style><clipPath id="clip-path" transform="translate(0 10.05)"><rect class="cls-1" x="5.09" y="24.84" width="111.99" height="11.59" transform="translate(-6.74 22.26) rotate(-19.6)"/></clipPath></defs><title>Recurso 2</title><g id="Capa_2" data-name="Capa 2"><g id="Capa_3" data-name="Capa 3"><path class="cls-2" d="M123.71,64.46v55.82a21.1,21.1,0,0,1-21.1,21.1H32.82a21.1,21.1,0,0,1-21.1-21.1V64.46h112m5-5H6.72v60.82a26.13,26.13,0,0,0,26.1,26.1h69.79a26.13,26.13,0,0,0,26.1-26.1V59.46Z" transform="translate(0 10.05)"/><g class="cls-3"><path class="cls-4" d="M29.21,60c0-1,17-57,17-57" transform="translate(0 10.05)"/><path class="cls-4" d="M55.21,57c0-1,17-57,17-57" transform="translate(0 10.05)"/><path class="cls-4" d="M82.21,49c0-1,17-57,17-57" transform="translate(0 10.05)"/></g><path class="cls-2" d="M111.88,6.39l3.89,10.91L10.27,54.87,6.39,44,111.88,6.39m3-6.39-4.71,1.68L4.71,39.24,0,40.92l1.68,4.71L5.56,56.55l1.68,4.71L12,59.58,117.45,22l4.71-1.67-1.68-4.71L116.6,4.71,114.92,0Z" transform="translate(0 10.05)"/><text class="cls-5" transform="translate(51.21 202.73)">5<tspan class="cls-6" x="15.32" y="0">.</tspan><tspan class="cls-7" x="23.6" y="0">1</tspan></text></g></g></svg>