<svg xmlns="http://www.w3.org/2000/svg" viewBox="0 0 853.48 142.72"><defs><style>.cls-1{fill:#74818c;}</style></defs><title>Agradecimientos</title><g id="Capa_2" data-name="Capa 2"><g id="Capa_13" data-name="Capa 13"><path class="cls-1" d="M58.17,13.88V134.72H40.46V87H45.9l-.31-.15-5.13-2.95L25.71,75.38v59.34H8V13.88H58.17M40.46,64.51V31.58H25.71V56l14.75,8.54M66.17,5.88H0V142.72H66.17V5.88Z"/><path class="cls-1" d="M117.5,13.88V51.31H100V31.58H85.19V117h14.6V86.72h4.66l-9.16-5.28V62.18l27.18,15.69V97.13l-5.12-2.95V117h.15v17.71h-50V13.88h50m8-8h-66V142.72h66V109h-.15v-1l5.12,3V73.25l-4-2.31L106.32,59.31H125.5V5.88Z"/><path class="cls-1" d="M182,13.88V64.2L173.41,69,182,74v60.74H164.25V87h5.44l-.31-.15-5.13-2.95L149.5,75.38v59.34H131.79V13.88H182M164.25,64.51V31.58H149.5V56l14.75,8.54M190,5.88H123.79V142.72H190V69.38l-.45-.25.45-.26v-63Z"/><path class="cls-1" d="M241.44,13.88V134.72h-17.7V87h5.43l-.31-.15-5.12-2.95L209,75.38v59.34h-17.7V13.88h50.16m-17.7,50.63V31.58H209V56l14.76,8.54m25.7-58.63H183.28V142.72h66.16V5.88Z"/><path class="cls-1" d="M284.78,13.88l16.15,9.31V125.4l-16.15,9.32h-34V13.88h34M268.47,117h9.32l5.44-3.11V34.69l-5.44-3.11h-9.32V117M286.92,5.88H242.76V142.72h44.16l1.86-1.08,16.15-9.31,4-2.31V18.57l-4-2.3L288.78,7l-1.86-1.07Z"/><path class="cls-1" d="M361.82,13.88V51.31H344.11V31.58H329.36V56.12l18,10.41V85.79l-18-10.41V117h14.75V93.09l17.71,10.1v31.53H311.65V67.93h4.66l-4.66-2.64-4.51-2.64V43.39l4.51,2.48v-32h50.17m8-8H303.65V32.32l-4.51-2.48V67.23l4,2.32.55.32v72.85h66.17V98.54l-4-2.3L355.37,90.3V61.91l-4-2.31-.5-.29h18.95V5.88Z"/><path class="cls-1" d="M421.31,13.88V51.46H403.6V31.58H388.84V117H403.6V64.51l17.71,10.25v60H371.14V13.88h50.17m8-8H363.14V142.72h66.17V70.15l-4-2.31-14.46-8.38h18.46V5.88Z"/><path class="cls-1" d="M449.73,13.88V56l4.66,2.64V77.87l-4.66-2.64v59.49H432l.16-18.49V68.39h5.28L432,65.29v-.16l-4.5-2.64V43.23l4.5,2.49V13.88h17.71m8-8H424V32.17l-4.5-2.49V67.07l4,2.32.55.32v.22l.16.09V116.2L424,134.65l-.07,8.07h33.78V89l4.66,2.64V54l-4.06-2.3-.6-.34V5.88Z"/><path class="cls-1" d="M463.55,13.88l24.7,14.28.46.32.31-.32L513.72,14V134.72H496V43.54l-7.3,4.19h-.15l-7.3-4.34v91.33H463.55V13.88M455.55,0V142.72h66.17V.23l-12,6.86-21.1,12.07L467.56,7,455.55,0Z"/><path class="cls-1" d="M542.14,13.88V56l4.66,2.64V77.87l-4.66-2.64v59.49h-17.7l.15-18.49V68.39h5.28l-5.43-3.1v-.16l-4.51-2.64V43.23l4.51,2.49V13.88h17.7m8-8h-33.7V32.17l-4.51-2.49V67.07l4,2.32.55.32v.22l.15.09V116.2l-.15,18.45-.07,8.07h33.77V89l4.66,2.64V54l-4-2.3-.61-.34V5.88Z"/><path class="cls-1" d="M607.53,13.88V51.31H589.82V31.58H575.07V56.12l18,10.41V85.79l-18-10.41V117h14.75V93.09l17.71,10.1v31.53H557.36V67.93H562l-4.66-2.64-4.5-2.64V43.39l4.5,2.48v-32h50.17m8-8H549.36V32.32l-4.5-2.48V67.23l3.95,2.32.55.32v72.85h66.17V98.54l-4-2.3-10.4-5.94V61.91l-4-2.31-.51-.29h18.95V5.88Z"/><path class="cls-1" d="M667,13.88V134.72H649.31V55h5.44L634.56,43.39v91.33H616.85V13.88l32.46,18.79V13.88H667M608.85,0V142.72H675V5.88H641.31V18.79L620.86,7,608.85,0Z"/><path class="cls-1" d="M726.51,13.88v17.7H710.2V134.72H692.49V31.58H676.34V13.88h50.17m8-8H668.34v33.7h16.15V142.72H718.2V39.58h16.31V5.88Z"/><path class="cls-1" d="M786,13.88V134.72H735.83V13.88H786M753.53,117h14.76V31.58H753.53V117M794,5.88H727.83V142.72H794V5.88Z"/><path class="cls-1" d="M845.48,13.88V51.62h-17.7v-20H813V56l32.46,18.79v60H795.31V87.34H813V117h14.76V87h5.43l-.31-.15-5.12-2.95-32.47-18.8V13.88h50.17m8-8H787.31V69.74l4,2.31,12.59,7.29H787.31v63.38h66.17V70.15l-4-2.31-14.2-8.22h18.19V5.88Z"/></g></g></svg>