<svg xmlns="http://www.w3.org/2000/svg" viewBox="0 0 205.19 206.08"><defs><style>.cls-1{font-size:40px;fill:#74818c;font-family:LongShot, Long Shot;}.cls-2,.cls-3{fill:none;stroke:#74818c;stroke-linejoin:round;stroke-width:5px;}.cls-3{stroke-linecap:round;}</style></defs><title>Recurso 3</title><g id="Capa_2" data-name="Capa 2"><g id="Capa_3" data-name="Capa 3"><text class="cls-1" transform="translate(45.43 197.2)">BINAURAL</text><path class="cls-2" d="M140.19,150v-9s7.5-14.5,8.5-28.5c0,0,9-6,10-17a124.57,124.57,0,0,0,0-21s-2-9-8,2c0,0,17-71-48-74h.5c-65,3-48,74-48,74-6-11-8-2-8-2a124.57,124.57,0,0,0,0,21c1,11,10,17,10,17,1,14,8.5,28.5,8.5,28.5v9"/><path class="cls-3" d="M35.69,102s-11-10,0-25"/><path class="cls-3" d="M26.45,111s-18.92-17.2,0-43"/><path class="cls-3" d="M16,124s-30.36-27.6,0-69"/><path class="cls-3" d="M169.5,102s11-10,0-25"/><path class="cls-3" d="M178.74,111s18.92-17.2,0-43"/><path class="cls-3" d="M189.2,124s30.36-27.6,0-69"/></g></g></svg>