<svg xmlns="http://www.w3.org/2000/svg" viewBox="0 0 636.85 147.3"><defs><style>.cls-1{fill:#74818c;}</style></defs><title>contactenos</title><g id="Capa_2" data-name="Capa 2"><g id="Capa_9" data-name="Capa 9"><path class="cls-1" d="M56.19,23.22V59.33h-17V40.23H25v82.06H39.18V71.86l17,9.85V139.3H8V23.22H56.19m8-8H0V147.3H64.19V77.1l-4-2.32L47.32,67.33H64.19V15.22Z"/><path class="cls-1" d="M113.34,23.22V139.3H65.15V23.22h48.19M82.16,122.29H96.33V40.23H82.16v82.06M121.34,15.22H57.15V147.3h64.19V15.22Z"/><path class="cls-1" d="M170.49,23.22V139.3h-17V62.76h5.22L139.3,51.57V139.3h-17V23.22l31.19,18.05V23.22h17M114.29,9.34v138h64.2V15.22h-33V27.4L126.3,16.3l-12-7Z"/><path class="cls-1" d="M227.63,23.22v17H212V139.3H195V40.23H179.44v-17h48.19m8-8H171.44v33H187V147.3h33V48.23h15.66v-33Z"/><path class="cls-1" d="M279.56,8l-9.7,9.85H252.55L263.14,8h16.42m5.22,15.22V139.3h-17V93.5H273l-.3-.15-4.92-2.84-14.18-8.2v57h-17V23.22h48.2m-17,48.64V40.23H253.59V63.65l14.18,8.21M298.66,0H260l-2.3,2.14L247.1,12l-3.47,3.23h-15V147.3h64.2V15.22h-9.11l1.59-1.61L298.66,0Z"/><path class="cls-1" d="M341.77,23.22V59.33h-17V40.23H310.59v82.06h14.17V71.86l17,9.85V139.3H293.58V23.22h48.19m8-8H285.58V147.3h64.19V77.1l-4-2.32L332.9,67.33h16.87V15.22Z"/><path class="cls-1" d="M398.92,23.22v17H383.25V139.3h-17V40.23H350.73v-17h48.19m8-8H342.73v33h15.51V147.3h33V48.23h15.67v-33Z"/><path class="cls-1" d="M457.41,23.22v36h-17v-19H426.22V63.8l17.31,10V92.3l-17.31-10v40H440.4v-23l17,9.69V139.3h-48.2V75.14h4.48l-4.48-2.53-4.32-2.54V51.57L409.21,54V23.22h48.2m8-8h-64.2V40.4L396.89,38V74.65L400.84,77l.37.22V147.3h64.2V104.37l-4-2.31-9.84-5.61V69.18l-3.47-2h17.35v-52Z"/><path class="cls-1" d="M514.56,23.22V139.3h-17V62.76h5.22l-19.4-11.19V139.3h-17V23.22l31.19,18.05V23.22h17M458.36,9.34v138h64.2V15.22h-33V27.4L470.37,16.3l-12-7Z"/><path class="cls-1" d="M571.7,23.22V139.3H523.51V23.22H571.7m-31.18,99.07h14.17V40.23H540.52v82.06M579.7,15.22H515.51V147.3H579.7V15.22Z"/><path class="cls-1" d="M628.85,23.22V59.48h-17V40.23H597.66V63.65l31.19,18.06V139.3h-48.2V93.79h17v28.5h14.18V93.5h5.22l-.3-.15-4.92-2.84L580.65,72.46V23.22h48.2m8-8h-64.2V77.07l4,2.31,11.08,6.41H572.65V147.3h64.2V77.1l-4-2.32-12.63-7.3h16.62V15.22Z"/></g></g></svg>