<svg xmlns="http://www.w3.org/2000/svg" viewBox="0 0 254 204"><defs><style>.cls-1{font-size:40px;font-family:LongShot, Long Shot;}.cls-1,.cls-3,.cls-4{fill:#74818c;}.cls-2{fill:none;}.cls-2,.cls-4{stroke:#74818c;stroke-linejoin:round;stroke-width:5px;}.cls-4{stroke-linecap:round;}</style></defs><title>Recurso 4</title><g id="Capa_2" data-name="Capa 2"><g id="Capa_3" data-name="Capa 3"><text class="cls-1" transform="translate(80.94 195.12)">ESTEREO</text><rect class="cls-2" x="2.5" y="4.11" width="113.76" height="143.19" rx="11.5"/><circle class="cls-2" cx="59.38" cy="37.92" r="14.32"/><circle class="cls-2" cx="59.38" cy="99.18" r="31.03"/><circle class="cls-3" cx="59.38" cy="96.79" r="9.55"/><circle class="cls-3" cx="16.02" cy="17.64" r="3.18"/><circle class="cls-3" cx="104.33" cy="17.64" r="3.18"/><circle class="cls-3" cx="16.02" cy="134.58" r="3.18"/><circle class="cls-3" cx="104.33" cy="134.58" r="3.18"/><ellipse class="cls-2" cx="161.01" cy="101.58" rx="10.58" ry="30.93" transform="translate(-23.25 53.72) rotate(-17.69)"/><path class="cls-4" d="M151.66,72.13s-21.88,13.13-14.72,39.38,32.43,19.7,32.43,19.7-4.43.44-9-5.78C151.06,112.57,139.33,86.07,151.66,72.13Z"/><ellipse class="cls-2" cx="225.99" cy="101.58" rx="30.93" ry="10.58" transform="translate(60.56 286.02) rotate(-72.31)"/><path class="cls-4" d="M235.34,72.13s21.88,13.13,14.72,39.38-32.43,19.7-32.43,19.7,4.44.44,9-5.78C236,112.57,247.67,86.07,235.34,72.13Z"/><path class="cls-2" d="M249.66,89.63s10-88.7-56.08-87.11h-.15c-66-1.59-56.09,87.11-56.09,87.11"/></g></g></svg>