<svg xmlns="http://www.w3.org/2000/svg" viewBox="0 0 30 30.76"><defs><style>.cls-1{fill:#d7d7d9;}</style></defs><title>Recurso 1</title><g id="Capa_2" data-name="Capa 2"><g id="Capa_1-2" data-name="Capa 1"><path class="cls-1" d="M22.21,2A5.79,5.79,0,0,1,28,7.79V23a5.79,5.79,0,0,1-5.79,5.79H7.79A5.79,5.79,0,0,1,2,23V7.79A5.79,5.79,0,0,1,7.79,2H22.21m0-2H7.79A7.81,7.81,0,0,0,0,7.79V23a7.8,7.8,0,0,0,7.79,7.79H22.21A7.8,7.8,0,0,0,30,23V7.79A7.81,7.81,0,0,0,22.21,0Z"/><path class="cls-1" d="M13.46,29.38V18.43H9.84v-4h3.62v-4s0-5.07,5.08-5.07h3.62V9H20s-2.18.36-2.18,2.17v3.26h4v4h-4v11Z"/></g></g></svg>