<svg xmlns="http://www.w3.org/2000/svg" viewBox="0 0 417.2 175.52"><defs><style>.cls-1{font-size:18px;fill:#d7d7d9;font-family:GeosansLight;}.cls-2{letter-spacing:-0.05em;}.cls-3{letter-spacing:-0.06em;}.cls-4{letter-spacing:-0.03em;}.cls-5{letter-spacing:-0.02em;}.cls-6{letter-spacing:-0.05em;}.cls-7{letter-spacing:-0.02em;}.cls-8{letter-spacing:-0.03em;}.cls-9{letter-spacing:-0.06em;}.cls-10{letter-spacing:-0.05em;}.cls-11{letter-spacing:-0.05em;}.cls-12{letter-spacing:-0.03em;}.cls-13{letter-spacing:-0.05em;}.cls-14{letter-spacing:-0.06em;}.cls-15{letter-spacing:-0.05em;}.cls-16{letter-spacing:-0.05em;}.cls-17{letter-spacing:-0.05em;}.cls-18{letter-spacing:-0.02em;}.cls-19{letter-spacing:-0.03em;}.cls-20{letter-spacing:-0.05em;}.cls-21{letter-spacing:-0.19em;}.cls-22{fill:#74818c;}.cls-23{fill:none;stroke:#74818c;stroke-miterlimit:10;stroke-width:2px;}</style></defs><title>Footer</title><g id="Capa_2" data-name="Capa 2"><g id="Capa_8" data-name="Capa 8"><text class="cls-1" transform="translate(144.2 84.45)"><tspan class="cls-2">U</tspan><tspan x="9.18" y="0">na p</tspan><tspan class="cls-3" x="40.3" y="0">r</tspan><tspan x="44.75" y="0">odu</tspan><tspan class="cls-4" x="70.81" y="0">c</tspan><tspan class="cls-5" x="78.17" y="0">c</tspan><tspan x="85.63" y="0">ión de</tspan><tspan x="-123.16" y="20">Maria </tspan><tspan class="cls-6" x="-75.09" y="20">C</tspan><tspan x="-63.37" y="20">la</tspan><tspan class="cls-7" x="-50.73" y="20">r</tspan><tspan x="-45.51" y="20">a </tspan><tspan class="cls-8" x="-31.74" y="20">C</tspan><tspan x="-19.72" y="20">a</tspan><tspan class="cls-9" x="-10.54" y="20">l</tspan><tspan x="-8.24" y="20">le J</tspan><tspan class="cls-10" x="14.3" y="20">i</tspan><tspan x="16.75" y="20">men</tspan><tspan class="cls-11" x="45.26" y="20">e</tspan><tspan x="53.25" y="20">z &amp; Juan </tspan><tspan class="cls-12" x="116.77" y="20">C</tspan><tspan x="128.8" y="20">arlos San</tspan><tspan class="cls-13" x="192.79" y="20">t</tspan><tspan x="196.44" y="20">a Ab</tspan><tspan class="cls-14" x="230.91" y="20">r</tspan><tspan x="235.43" y="20">eu</tspan><tspan class="cls-2" x="-51.04" y="40">U</tspan><tspan class="cls-15" x="-41.86" y="40">n</tspan><tspan x="-34.68" y="40">ive</tspan><tspan class="cls-16" x="-14.71" y="40">r</tspan><tspan x="-9.98" y="40">s</tspan><tspan class="cls-17" x="-4.02" y="40">i</tspan><tspan x="-1.61" y="40">dad de San Buenaventu</tspan><tspan class="cls-18" x="165.45" y="40">r</tspan><tspan x="170.67" y="40">a</tspan><tspan x="-4.9" y="60">Mede</tspan><tspan class="cls-9" x="38.35" y="60">l</tspan><tspan class="cls-6" x="40.65" y="60">l</tspan><tspan class="cls-10" x="43.19" y="60">i</tspan><tspan x="45.64" y="60">n - </tspan><tspan class="cls-19" x="67.81" y="60">C</tspan><tspan x="79.84" y="60">olom</tspan><tspan class="cls-20" x="112.79" y="60">b</tspan><tspan x="121.22" y="60">ia</tspan><tspan x="46.59" y="80">2</tspan><tspan class="cls-5" x="56.4" y="80">0</tspan><tspan class="cls-21" x="65.98" y="80">2</tspan><tspan x="72.4" y="80">1</tspan></text><path class="cls-22" d="M73.05,7.61v36.5h5.22V35.65l6.27,3.57V50.38H66.78V7.61h6.27m2-2H64.78V52.38H86.54V38.06l-1-.58-6.27-3.57-3-1.71v9.91H75.05V5.61Z"/><path class="cls-22" d="M105.59,7.61V50.38H99.32V33.5h1.93l-.11,0L99.32,32.4l-5.22-3v21H87.83V7.61h17.76M99.32,25.53V13.87H94.1v8.64l5.22,3m8.27-19.92H85.83V52.38H96.1V32.85l1.22.7V52.38h10.27V5.61ZM96.1,15.87h1.22v6.19l-1.22-.71V15.87Z"/><path class="cls-22" d="M132.47,7.61l5.72,3.3V47.08l-5.72,3.3h-12V7.61h12m-5.77,36.5H130l1.92-1.1V15L130,13.87h-3.3V44.11M133,5.61H118.43V52.38H133l.46-.27,5.72-3.3,1-.57V9.75l-1-.58-5.72-3.29L133,5.61ZM128.7,15.87h.77l.45.27V41.85l-.45.26h-.77V15.87Z"/><path class="cls-22" d="M159.74,7.61V20.86h-6.27v-7h-5.22v8.69l6.38,3.68v6.82l-6.38-3.68V44.11h5.22V35.65l6.27,3.57V50.38H142V26.74h1.65L142,25.8l-1.59-.93V18.05l1.59.88V7.61h17.76m2-2H140v9.94l-1.59-.88V26l1,.58.6.35V52.38h21.76V38.06l-1-.58-4.1-2.34v-10l-1-.58-2.87-1.65h9V5.61ZM150.25,15.87h1.22v6.24l-1.22-.7V15.87Zm0,26.24V32.84l1.22.71v8.56Z"/><path class="cls-22" d="M180.8,7.61V21h-6.27v-7.1h-5.22v8.64l11.49,6.65V50.38H163V33.61h6.27v10.5h5.22V33.5h1.92l-.11,0-1.81-1.05L163,25.75V7.61H180.8m2-2H161V26.9l1,.58,7.13,4.13H161V52.38H182.8V28l-1-.58L174.09,23h8.71V5.61ZM171.31,15.87h1.22v6.19l-1.22-.71V15.87Zm0,26.24V32.85l1.22.7v8.56Z"/><path class="cls-22" d="M201.85,7.61V50.38h-6.26V33.5h1.92l-.11,0-1.81-1.05-5.23-3v21H184.1V7.61h17.75m-6.26,17.92V13.87h-5.23v8.64l5.23,3m8.26-19.92H182.1V52.38h10.26V32.85l1.23.7V52.38h10.26V5.61ZM192.36,15.87h1.23v6.19l-1.23-.71V15.87Z"/><path class="cls-22" d="M223.4,7.61V36.09l-11.49-6.66v21h-6.26V26.74h1.65l-1.65-.94-1.6-.93V18.05l1.6.88V7.61H223.4m-6.26,18V13.87h-5.23v8.69l5.23,3m8.26-20H203.65v9.94l-1.6-.88V26l1,.58.61.35V52.38h10.26V32.9l8.49,4.92,3,1.73V5.61ZM213.91,15.87h1.23v6.25l-1.23-.71V15.87Z"/><path class="cls-22" d="M244.46,7.61V50.38h-6.27V33.5h1.93l-.11,0-1.82-1.05-5.22-3v21H226.7V7.61h17.76m-6.27,17.92V13.87H233v8.64l5.22,3m8.27-19.92H224.7V52.38H235V32.85l1.22.7V52.38h10.27V5.61ZM235,15.87h1.22v6.19L235,21.35V15.87Z"/><path class="cls-22" d="M265.51,7.61V25.42l-3,1.7,3,1.76v21.5h-6.26V33.5h1.92l-.11,0-1.81-1.05-5.23-3v21h-6.26V7.61h17.75m-6.26,17.92V13.87H254v8.64l5.23,3m8.26-19.92H245.76V52.38H256V32.85l1.23.7V52.38h10.26V27.73l-1-.58h0l1-.56v-21ZM256,15.87h1.23v6.19L256,21.35V15.87Z"/><path class="cls-22" d="M275.57,7.61v14.9l1.65.93v6.82l-1.65-.94V50.38h-6.26l.05-6.54V26.9h1.87l-1.92-1.1v-.05l-1.6-.93V18l1.6.88V7.61h6.26m2-2H267.31v9.88l-1.6-.88V26l1,.58.61.36V27l.05,0V43.84l-.05,6.52,0,2h10.28V32.76l1.65.93V22.28l-1-.58-.64-.36V5.61Z"/><path class="cls-22" d="M298.22,7.61v13.3H292v-7h-5.23V44.11H292V25.53l6.26,3.63V50.38H280.47V7.61h17.75m2-2H278.47V52.38h21.75V28l-1-.58L293,23.8l-1.53-.89h8.79V5.61ZM288.73,15.87H290V42.11h-1.23V15.87Z"/><path class="cls-22" d="M308.28,7.61v14.9l1.65.93v6.82l-1.65-.94V50.38H302l.05-6.54V26.9h1.87L302,25.8v-.05l-1.6-.93V18l1.6.88V7.61h6.26m2-2H300v9.88l-1.6-.88V26l1,.58.61.36V27l.05,0V43.84L300,50.36l0,2h10.28V32.76l1.65.93V22.28l-1-.58-.64-.36V5.61Z"/><path class="cls-22" d="M329,2l-3.57,3.63h-6.38L323,2H329m1.92,5.61V50.38H313.18V7.61h17.75m-11.49,36.5h5.23V13.87h-5.23V44.11M333.79,0H322.18l-.58.54-3.9,3.62-1.56,1.45h-5V52.38h21.75V5.61h-4.67l2.18-2.21L333.79,0ZM321.44,15.87h1.23V42.11h-1.23V15.87Z"/><path class="cls-22" d="M352,7.61V50.38h-6.26V22.18h1.92l-7.15-4.13V50.38h-6.26V7.61l11.49,6.65V7.61H352M332.29,4.14V52.38h10.26V21.52l1.23.7V52.38H354V5.61H343.78v5.18l-8.49-4.91-3-1.74Z"/><line class="cls-23" x1="61.99" y1="58.73" x2="355.21" y2="58.73"/></g></g></svg>