<svg xmlns="http://www.w3.org/2000/svg" viewBox="0 0 30.09 30.85"><defs><style>.cls-1{fill:#d7d7d9;}</style></defs><title>Recurso 2</title><g id="Capa_2" data-name="Capa 2"><g id="Capa_1-2" data-name="Capa 1"><path class="cls-1" d="M22.21,2A5.79,5.79,0,0,1,28,7.76l.09,15.18a5.79,5.79,0,0,1-5.76,5.82l-14.42.09h0a5.79,5.79,0,0,1-5.79-5.76L2,7.91A5.8,5.8,0,0,1,7.76,2.08L22.18,2h0m0-2h-.05L7.75.08A7.8,7.8,0,0,0,0,7.92L.09,23.1a7.81,7.81,0,0,0,7.79,7.75l14.46-.09a7.8,7.8,0,0,0,7.75-7.83L30,7.75A7.81,7.81,0,0,0,22.21,0Z"/><path class="cls-1" d="M15,9.31a6.12,6.12,0,0,1,0,12.23h0A6.12,6.12,0,0,1,15,9.31h0m0-2h0a8.11,8.11,0,0,0-8.07,8.16A8.12,8.12,0,1,0,15,7.31Z"/></g></g></svg>