<svg xmlns="http://www.w3.org/2000/svg" viewBox="0 0 915.2 189.06"><defs><style>.cls-1{fill:#d3e1ea;}.cls-2{fill:none;stroke:#d3e1ea;stroke-miterlimit:10;stroke-width:8px;}</style></defs><title>Logo</title><g id="Capa_2" data-name="Capa 2"><g id="Capa_4" data-name="Capa 4"><path class="cls-1" d="M34.52,25.5V139.44h16.3V113l19.56,11.15V159H15V25.5H34.52m8-8H7V167H78.38V119.52l-4-2.31L54.78,106.06l-12-6.82v32.2h-.3V17.5Z"/><path class="cls-1" d="M136.1,25.5V159H116.54V106.32h6l-.34-.17-5.66-3.26-16.3-9.44V159H80.68V25.5H136.1M116.54,81.44V45.06h-16.3V72l16.3,9.44M144.1,17.5H72.68V167h35.56V107.33l.3.17V167H144.1V17.5ZM108.24,53.06h.3v14.5l-.3-.17V53.06Z"/><path class="cls-1" d="M220,25.5l17.85,10.3V148.7L220,159H182.42V25.5H220M202,139.44h10.29l6-3.44V48.49l-6-3.43H202v94.38M222.14,17.5H174.42V167h47.72l1.86-1.07,17.84-10.3,4-2.31V31.18l-4-2.31L224,18.57l-1.86-1.07ZM210,53.06h.17l.13.08v78.22l-.13.08H210V53.06Z"/><path class="cls-1" d="M305.11,25.5V66.85H285.55V45.06h-16.3V72.17l19.9,11.5V105l-19.9-11.5v46h16.3V113l19.56,11.15V159H249.69V85.21h5.14l-5.14-2.91-5-2.92V58.1l5,2.75V25.5h55.42m8-8H241.69V47.3l-5-2.75V84l3.95,2.32,1,.6V167h71.42V119.52l-4-2.31-11.92-6.79V79.05l-4-2.31-3.27-1.89h23.23V17.5ZM277.25,53.06h.3V67.73l-.3-.17V53.06Zm0,78.38V107.31l.3.17v24Z"/><path class="cls-1" d="M370.83,25.5V67.2H351.26V45.06H335V72l35.87,20.76V159H315.4V106.66H335v32.78h16.3V106.32h6l-.34-.17-5.67-3.26L315.4,82.13V25.5h55.43m8-8H307.4V86.74l4,2.31L328,98.66H307.4V167h71.43V88.15l-4-2.31L356.45,75.2h22.38V17.5ZM343,53.06h.3v14.5l-.3-.17V53.06Zm0,78.38V107.33l.3.17v23.94Z"/><path class="cls-1" d="M436.54,25.5V159H417V106.32h6l-.35-.17L417,102.89l-16.3-9.44V159H381.12V25.5h55.42M417,81.44V45.06h-16.3V72L417,81.44M444.54,17.5H373.12V167h35.56V107.33l.3.17V167h35.56V17.5ZM408.68,53.06h.3v14.5l-.3-.17V53.06Z"/><path class="cls-1" d="M503.8,25.5v88.88L467.94,93.62V159H448.38V85.21h5.15l-5.15-2.91-5-2.92V58.1l5,2.75V25.5H503.8M484.24,81.61V45.06h-16.3V72.17l16.3,9.44M511.8,17.5H440.38V47.3l-5-2.75V84l4,2.32,1,.6V167h35.56V107.5l23.85,13.81,12,6.95V17.5ZM475.94,53.06h.3V67.73l-.3-.17V53.06Z"/><path class="cls-1" d="M569.52,25.5V159H550V106.32h6l-.34-.17L550,102.89l-16.3-9.44V159H514.1V25.5h55.42M550,81.44V45.06h-16.3V72L550,81.44M577.52,17.5H506.1V167h35.56V107.33l.3.17V167h35.56V17.5ZM541.66,53.06h.3v14.5l-.3-.17V53.06Z"/><path class="cls-1" d="M635.24,25.5V81.1l-9.44,5.31,9.44,5.5V159H615.68V106.32h6l-.34-.17-5.66-3.26-16.31-9.44V159H579.81V25.5h55.43M615.68,81.44V45.06H599.37V72l16.31,9.44M643.24,17.5H571.81V167h35.56V107.33l.31.17V167h35.56V87.3l-1.34-.77,1.34-.76V17.5ZM607.37,53.06h.31v14.5l-.31-.17V53.06Z"/><path class="cls-1" d="M666.64,25.5V72l5.14,2.92V96.2l-5.14-2.92V159H647.08l.17-20.42V85.73h5.83l-6-3.43v-.17l-5-2.92V57.93l5,2.75V25.5h19.56m8-8H639.08V47.13l-5-2.75V83.79l3.95,2.32,1,.6v.23l.17.1v51.5l-.17,20.39L639,167h35.63V107l5.14,2.91V70.26l-4-2.3-1.09-.62V17.5Z"/><path class="cls-1" d="M737.33,25.5V67H717.77v-22h-16.3v94.38h16.3v-58l19.56,11.32V159H681.91V25.5h55.42m8-8H673.91V167h71.42V88.15l-4-2.31L722.66,75h22.67V17.5ZM709.47,53.06h.3v78.38h-.3V53.06Z"/><path class="cls-1" d="M768.73,25.5V72l5.14,2.92V96.2l-5.14-2.92V159H749.17l.17-20.42V85.73h5.83l-6-3.43v-.17l-5-2.92V57.93l5,2.75V25.5h19.56m8-8H741.17V47.13l-5-2.75V83.79l3.95,2.32,1,.6v.23l.17.1v51.5l-.17,20.39L741.1,167h35.63V107l5.14,2.91V70.26l-4-2.3-1.09-.62V17.5Z"/><path class="cls-1" d="M833.41,8,822.26,19.32h-19.9L814.54,8h18.87m6,17.5V159H784V25.5h55.42M803.56,139.44h16.3V45.06h-16.3v94.38M852.52,0H811.39l-2.3,2.14L796.91,13.47l-4.34,4H776V167h71.42V17.5H835.28l3.83-3.89L852.52,0Zm-41,53.06h.3v78.38h-.3V53.06Z"/><path class="cls-1" d="M905.31,25.5V159H885.75V71h6L869.44,58.1V159H849.88V25.5l35.87,20.76V25.5h19.56M841.88,11.63V167h35.56V72l.31.18V167h35.56V17.5H877.75V32.39L853.89,18.58l-12-6.95Z"/><line class="cls-2" y1="185.06" x2="915.2" y2="185.06"/></g></g></svg>