<svg xmlns="http://www.w3.org/2000/svg" viewBox="0 0 298.6 132.7"><defs><style>.cls-1{fill:#d3e1ea;}</style></defs><title>pausa</title><g id="Capa_2" data-name="Capa 2"><g id="Capa_6" data-name="Capa 6"><path class="cls-1" d="M60.8,8V85.7L29.45,67.55V124.7H12.35V60.2h4.5l-4.5-2.55L8,55.1V36.5l4.35,2.4V8H60.8M43.7,57.05V25.1H29.45V48.8L43.7,57.05M68.8,0H4.35V25.35L0,23V59.68L4,62l.4.23V132.7h33.1V81.43L56.79,92.62l12,7V0Z"/><path class="cls-1" d="M118.25,8V124.7h-17.1v-46h5.25l-.3-.15-4.95-2.85L86.9,67.4v57.3H69.8V8h48.45m-17.1,48.9V25.1H86.9V48.65l14.25,8.25M126.25,0H61.8V132.7h64.45V0Z"/><path class="cls-1" d="M175.7,8V124.7H127.25V8h17.1v99.6H158.6V8h17.1m8-8H119.25V132.7H183.7V0Z"/><path class="cls-1" d="M233.15,8V44.45h-17.1V25.1H201.8V48.65L233.15,66.8v57.9H184.7V79h17.1V107.6h14.25V78.65h5.25l-.3-.15-4.95-2.85L184.7,57.5V8h48.45m8-8H176.7V62.11l4,2.31L192,71H176.7V132.7h64.45V62.19l-4-2.31-12.83-7.43h16.82V0Z"/><path class="cls-1" d="M290.6,8V124.7H273.5v-46h5.25l-.3-.15-4.95-2.85L259.25,67.4v57.3h-17.1V8H290.6M273.5,56.9V25.1H259.25V48.65L273.5,56.9M298.6,0H234.15V132.7H298.6V0Z"/></g></g></svg>