<svg xmlns="http://www.w3.org/2000/svg" viewBox="0 0 162.94 406.43"><defs><style>.cls-1{fill:#fff;}.cls-2{fill:none;stroke:#fff;stroke-miterlimit:10;stroke-width:3px;}</style></defs><title>perno</title><g id="Capa_2" data-name="Capa 2"><g id="Capa_1-2" data-name="Capa 1"><polygon class="cls-1" points="162.94 130.35 162.94 13.04 81.47 0 0 13.04 0 130.35 162.94 130.35"/><path class="cls-2" d="M82.73,156.84c-42.35,0-77.94-6.25-77.94-13.45s34.33-13,76.68-13"/><path class="cls-2" d="M82.73,212.24c-42.35,0-77.94-6.25-77.94-13.45s35.59-14.25,77.94-14.25"/><path class="cls-2" d="M82.73,156.84c42.35,0,77.94,6.26,77.94,13.46s-35.59,14.24-77.94,14.24"/><path class="cls-2" d="M82.73,212.24c42.35,0,77.94,6.26,77.94,13.46s-35.59,14.24-77.94,14.24"/><path class="cls-2" d="M82.73,267.64c-42.35,0-77.94-6.25-77.94-13.45s35.59-14.25,77.94-14.25"/><path class="cls-2" d="M82.73,267.64c42.35,0,77.94,6.26,77.94,13.46s-35.59,14.24-77.94,14.24"/><path class="cls-2" d="M82.73,323c-42.35,0-77.94-6.25-77.94-13.45s35.59-14.25,77.94-14.25"/><path class="cls-2" d="M82.73,378.44c-42.35,0-77.94-6.25-77.94-13.45S41,350.14,83.36,350.14"/><path class="cls-2" d="M82.73,323c42.35,0,77.94,6.26,77.94,13.46s-35,13.64-77.31,13.64"/><path class="cls-2" d="M82.73,378.44c42.35,0,77.94,6.26,77.94,13.46s-34.33,13-76.68,13"/></g></g></svg>