<svg xmlns="http://www.w3.org/2000/svg" viewBox="0 0 1348.32 161.49"><defs><style>.cls-1{fill:#74818c;}</style></defs><title>que-es_1</title><g id="Capa_2" data-name="Capa 2"><g id="Capa_11" data-name="Capa 11"><path class="cls-1" d="M127.34,24.21V86.65l4.93,3v19.7l-4.93-2.86v41.32H76V24.21h51.32M94.13,129.71h14.94v-31h4.77l-9.38-5.4V73.62l4.77,2.7v-34H94.13v87.39m41.21-113.5H68V155.83h67.32V120.41l4.93,2.86V85.19l-3.82-2.34-1.11-.68v-66Z"/><path class="cls-1" d="M193.12,24.21V147.83H141.8V24.21h18.11v105.5H175V24.21h18.11m8-8H133.8V155.83h67.32V16.21Z"/><path class="cls-1" d="M248.42,8,238.09,18.49H219.66L230.94,8h17.48m7,16.21V62.5H237.29V42.32H222.2V67.43l18.43,10.64V97.78L222.2,87.13v42.58h15.09V105.24l18.12,10.33v32.26H204.08V79.5h4.77l-4.77-2.7-4.6-2.7V54.4l4.6,2.54V24.21h51.33M267.52,0H227.79l-2.3,2.14L214.21,12.63l-3.85,3.58H196.08V43.39l-4.6-2.54V78.68l4,2.32.65.38v74.45h67.33V110.92l-4-2.3-10.74-6.12v-29l-4-2.31-1.11-.64h19.89V16.21H251.56l2.56-2.6L267.52,0Z"/><path class="cls-1" d="M351.22,24.21V62.5H333.1V42.32H318V67.43l18.43,10.64V97.78L318,87.13v42.58H333.1V105.24l18.12,10.33v32.26H299.9V79.5h4.76l-4.76-2.7-4.61-2.7V54.4l4.61,2.54V24.21h51.32m8-8H291.9V43.39l-4.61-2.54V78.68L291.24,81l.66.38v74.45h67.32V110.92l-4-2.3-10.74-6.12v-29l-4-2.31-1.11-.64h19.89V16.21Z"/><path class="cls-1" d="M412.08,24.21V62.82H394V42.32H378.87V67.27l33.21,19.22v61.34H360.75V99.36h18.12v30.35H394V99.05h5.56l-.31-.16-5.25-3L360.75,76.64V24.21h51.33m8-8H352.75V81.26l4,2.31,13.47,7.79H352.75v64.47h67.33v-74l-4-2.31L401,70.82h19.11V16.21Z"/><path class="cls-1" d="M473.09,24.21v105.5h15.09V105.24l18.12,10.33v32.26H455V24.21h18.12m8-8H447V155.83H514.3V110.92l-4-2.3L492.15,98.29,481.09,92V16.21Z"/><path class="cls-1" d="M567.15,24.21V147.83H549V99.05h5.56l-.32-.16-5.24-3L534,87.13v60.7H515.83V24.21h51.32M549,76V42.32H534V67.27L549,76m26.11-59.8H507.83V155.83h67.32V16.21Z"/><path class="cls-1" d="M644.85,24.21l16.53,9.53V138.29l-16.53,9.54h-34.8V24.21h34.8m-16.68,105.5h9.53l5.56-3.17v-81l-5.56-3.18h-9.53v87.39M647,16.21H602.05V155.83H647l1.86-1.07,16.52-9.54,4-2.31V29.12l-4-2.31-16.52-9.53L647,16.21Z"/><path class="cls-1" d="M723.66,24.21V62.5H705.55V42.32h-15.1V67.43l18.43,10.64V97.78L690.45,87.13v42.58h15.1V105.24l18.11,10.33v32.26H672.34V79.5h4.77l-4.77-2.7-4.61-2.7V54.4l4.61,2.54V24.21h51.32m8-8H664.34V43.39l-4.61-2.54V78.68l4,2.32.65.38v74.45h67.32V110.92l-4-2.3-10.74-6.12v-29l-4-2.31-1.12-.64h19.89V16.21Z"/><path class="cls-1" d="M784.52,24.21V62.82H766.41V42.32h-15.1V67.27l33.21,19.22v61.34H733.2V99.36h18.11v30.35h15.1V99.05H772l-.32-.16-5.24-3L733.2,76.64V24.21h51.32m8-8H725.2V81.26l4,2.31,13.47,7.79H725.2v64.47h67.32v-74l-4-2.31-15.12-8.75h19.11V16.21Z"/><path class="cls-1" d="M845.38,24.21V147.83H827.26V99.05h5.56l-.32-.16-5.24-3-15.09-8.74v60.7H794.05V24.21h51.33M827.26,76V42.32H812.17V67.27L827.26,76m26.12-59.8H786.05V155.83h67.33V16.21Z"/><path class="cls-1" d="M907.66,24.21v82.3L874.45,87.29v60.54H856.34V79.5h4.77l-4.77-2.7-4.61-2.7V54.4l4.61,2.54V24.21h51.32m-18.11,52V42.32h-15.1V67.43l15.1,8.74m26.11-60H848.34V43.39l-4.61-2.54V78.68L847.68,81l.66.38v74.45h34.11V101.16l21.2,12.28,12,7V16.21Z"/><path class="cls-1" d="M968.52,24.21V147.83H950.4V99.05H956l-.31-.16-5.25-3-15.09-8.74v60.7H917.19V24.21h51.33M950.4,76V42.32H935.31V67.27L950.4,76m26.12-59.8H909.19V155.83h67.33V16.21Z"/><path class="cls-1" d="M1029.37,24.21V75.69l-8.74,4.92,8.74,5.09v62.13h-18.11V99.05h5.56l-.32-.16-5.24-3-15.1-8.74v60.7H978.05V24.21h51.32M1011.26,76V42.32h-15.1V67.27l15.1,8.74m26.11-59.8H970.05V155.83h67.32V81.1l-.64-.38.64-.36V16.21Z"/><path class="cls-1" d="M1058.45,24.21V67.27l4.77,2.7v19.7l-4.77-2.7v60.86h-18.11l.16-18.91V80h5.4l-5.56-3.18v-.16l-4.61-2.7V54.24l4.61,2.54V24.21h18.11m8-8h-34.11v27l-4.61-2.54V78.52l4,2.32.66.39v.21l.16.1v47.35l-.16,18.87-.07,8.07h34.18V100.7l4.77,2.7V65.31l-4.06-2.3-.71-.4V16.21Z"/><path class="cls-1" d="M1123.91,24.21V62.66H1105.8V42.32h-15.1v87.39h15.1V76l18.11,10.48v61.34h-51.32V24.21h51.32m8-8h-67.32V155.83h67.32v-74l-4-2.31-15.39-8.91h19.38V16.21Z"/><path class="cls-1" d="M1153,24.21V67.27l4.77,2.7v19.7L1153,87v60.86h-18.11l.16-18.91V80h5.4l-5.56-3.18v-.16l-4.61-2.7V54.24l4.61,2.54V24.21H1153m8-8h-34.11v27l-4.61-2.54V78.52l4,2.32.66.39v.21l.16.1v47.35l-.16,18.87-.07,8.07H1161V100.7l4.77,2.7V65.31L1161.7,63l-.71-.4V16.21Z"/><path class="cls-1" d="M1212.89,8l-10.33,10.49h-18.43L1195.41,8h17.48m5.56,16.21V147.83h-51.32V24.21h51.32m-33.2,105.5h15.09V42.32h-15.09v87.39M1232,0h-39.73L1190,2.14l-11.28,10.49-3.85,3.58h-15.71V155.83h67.32V16.21H1216l2.55-2.6L1232,0Z"/><path class="cls-1" d="M1279.47,24.21V147.83h-18.12V66.31h5.56L1246.26,54.4v93.43h-18.12V24.21l33.21,19.22V24.21h18.12m-59.33-13.88v145.5h67.33V16.21h-34.12V29.56l-21.2-12.28-12-7Z"/><path class="cls-1" d="M1340.32,24.21V76.64l-16.68,9.54V121h-18.11V77l16.68-9.69V42.32h-15.1V56.78H1289V24.21h51.32m-16.68,102.33v21.29l-18.11-10.17V126.54h18.11m24.68-110.33H1281V64.78h29.56l-9,5.26-4,2.32v70l4.08,2.29,18.11,10.17,11.92,6.69V90.82l12.65-7.23,4-2.3V16.21Z"/><path class="cls-1" d="M24.68,24.21,42.8,34.38V45.5H24.68V24.21M42.8,51.06v44l-16.69,9.7v24.94h15.1V115.25H59.32v32.58H8V95.39l16.68-9.53V51.06H42.8M16.68,10.54V81.22L4,88.45l-4,2.3v65.08H67.32V107.25H37.76L46.82,102l4-2.31v-70L46.71,27.4,28.6,17.23,16.68,10.54Z"/></g></g></svg>