<svg xmlns="http://www.w3.org/2000/svg" viewBox="0 0 1269.27 153.16"><defs><style>.cls-1{fill:#74818c;}</style></defs><title>que-es</title><g id="Capa_2" data-name="Capa 2"><g id="Capa_11" data-name="Capa 11"><path class="cls-1" d="M120.7,23.24V82l4.63,2.84v18.52l-4.63-2.68V139.5H72.43V23.24H120.7M89.47,122.46h14V93.32H108l-8.82-5.08V69.71l4.48,2.54v-32H89.47v82.18M128.7,15.24H64.43V147.5H128.7v-33l4.63,2.69V80.33L129.51,78l-.81-.49V15.24Z"/><path class="cls-1" d="M182.56,23.24V139.5H134.29V23.24h17v99.22h14.2V23.24h17m8-8H126.29V147.5h64.27V15.24Z"/><path class="cls-1" d="M241.14,23.24v36h-17v-19H209.91V63.89l17.33,10V92.43l-17.33-10v40H224.1v-23l17,9.71V139.5H192.87V75.24h4.48l-4.48-2.54-4.33-2.54V51.63L192.87,54V23.24h48.27m8-8H184.87V40.47l-4.33-2.39V74.75l4,2.31.38.23V147.5h64.27v-43l-4-2.3-9.86-5.62V69.28l-3.51-2h17.41v-52Z"/><path class="cls-1" d="M331.09,23.24v36h-17v-19H299.86V63.89l17.33,10V92.43l-17.33-10v40h14.19v-23l17,9.71V139.5H282.82V75.24h4.49l-4.49-2.54-4.33-2.54V51.63L282.82,54V23.24h48.27m8-8H274.82V40.47l-4.33-2.39V74.75l4,2.31.37.23V147.5h64.27v-43l-4-2.3-9.86-5.62V69.28l-3.51-2h17.41v-52Z"/><path class="cls-1" d="M388.32,23.24V59.55h-17V40.28h-14.2V63.74l31.23,18.08V139.5H340.05V93.92h17v28.54h14.2V93.62h5.23l-.3-.15-4.93-2.84L340.05,72.55V23.24h48.27m8-8H332.05V77.17l4,2.31,11.13,6.44H332.05V147.5h64.27V77.2l-4-2.31-12.68-7.34h16.67V15.24Z"/><path class="cls-1" d="M445.7,23.24v99.22h14.19v-23l17,9.71V139.5H428.66V23.24h17m8-8h-33V147.5h64.27v-43l-4-2.3-17-9.71L453.7,86.71V15.24Z"/><path class="cls-1" d="M534.16,23.24V139.5h-17V93.62h5.23l-.3-.15-4.93-2.84-14.2-8.21V139.5h-17V23.24h48.27M517.13,72V40.28h-14.2V63.74L517.13,72m25-56.72H477.89V147.5h64.27V15.24Z"/><path class="cls-1" d="M607.23,23.24l15.54,9v98.32l-15.54,9H574.5V23.24h32.73m-15.69,99.22h9l5.23-3V43.26l-5.23-3h-9v82.18M609.37,15.24H566.5V147.5h42.87l1.86-1.07,15.54-9,4-2.31V27.59l-4-2.31-15.54-9-1.86-1.07Z"/><path class="cls-1" d="M681.34,23.24v36h-17v-19h-14.2V63.89l17.34,10V92.43l-17.34-10v40h14.2v-23l17,9.71V139.5H633.08V75.24h4.48l-4.48-2.54-4.33-2.54V51.63L633.08,54V23.24h48.26m8-8H625.08V40.47l-4.33-2.39V74.75l4,2.31.38.23V147.5h64.26v-43l-4-2.3-9.86-5.62V69.28l-3.51-2h17.4v-52Z"/><path class="cls-1" d="M738.57,23.24V59.55h-17V40.28h-14.2V63.74l31.23,18.08V139.5H690.31V93.92h17v28.54h14.2V93.62h5.23l-.3-.15-4.93-2.84L690.31,72.55V23.24h48.26m8-8H682.31V77.17l4,2.31,11.13,6.44H682.31V147.5h64.26V77.2l-4-2.31L729.9,67.55h16.67V15.24Z"/><path class="cls-1" d="M795.8,23.24V139.5h-17V93.62H784l-.3-.15-4.93-2.84-14.2-8.21V139.5h-17V23.24H795.8M778.77,72V40.28h-14.2V63.74L778.77,72m25-56.72H739.54V147.5H803.8V15.24Z"/><path class="cls-1" d="M854.38,23.24v77.41L823.15,82.56V139.5h-17V75.24h4.49l-4.49-2.54-4.33-2.54V51.63L806.11,54V23.24h48.27m-17,48.86V40.28H823.15V63.89l14.19,8.21m25-56.86H798.11V40.47l-4.33-2.39V74.75l4,2.31.37.23V147.5h33V96.44l19.22,11.13,12,7V15.24Z"/><path class="cls-1" d="M911.61,23.24V139.5h-17V93.62h5.23l-.3-.15-4.93-2.84-14.2-8.21V139.5h-17V23.24h48.26M894.58,72V40.28h-14.2V63.74L894.58,72m25-56.72H855.35V147.5h64.26V15.24Z"/><path class="cls-1" d="M968.84,23.24V71.66l-8.22,4.63,8.22,4.78V139.5h-17V93.62H957l-.3-.15-4.93-2.84-14.2-8.21V139.5h-17V23.24h48.26M951.81,72V40.28h-14.2V63.74L951.81,72m25-56.72H912.58V147.5h64.26v-71l-.12-.07.12-.07V15.24Z"/><path class="cls-1" d="M996.19,23.24v40.5l4.48,2.54V84.81l-4.48-2.54V139.5h-17l.15-17.79v-46h5.08l-5.23-3v-.15L974.82,70V51.48l4.33,2.39V23.24h17m8-8h-33V40.32l-4.33-2.39V74.6l3.95,2.31.38.23v.2l.15.09v44.25l-.15,17.75-.07,8.07h33.11V96l4.48,2.54V61.62l-4.06-2.3-.42-.25V15.24Z"/><path class="cls-1" d="M1057.75,23.24V59.4h-17V40.28h-14.19v82.18h14.19V72l17,9.86V139.5h-48.27V23.24h48.27m8-8h-64.27V147.5h64.27V77.2l-4-2.31-12.94-7.49h16.93V15.24Z"/><path class="cls-1" d="M1085.09,23.24v40.5l4.49,2.54V84.81l-4.49-2.54V139.5h-17l.15-17.79v-46h5.08l-5.23-3v-.15L1063.73,70V51.48l4.33,2.39V23.24h17m8-8h-33V40.32l-4.33-2.39V74.6l4,2.31.38.23v.2l.15.09v44.25l-.15,17.75-.07,8.07h33.1V96l4.49,2.54V61.62l-4.06-2.3-.43-.25V15.24Z"/><path class="cls-1" d="M1141.43,8l-9.72,9.86h-17.33L1125,8h16.44m5.23,15.24V139.5h-48.27V23.24h48.27m-31.23,99.22h14.19V40.28h-14.19v82.18M1160.53,0h-38.68l-2.31,2.14L1108.93,12l-3.48,3.24h-15.06V147.5h64.27V15.24h-9.14l1.61-1.63L1160.53,0Z"/><path class="cls-1" d="M1204,23.24V139.5h-17V62.84h5.23L1172.8,51.63V139.5h-17V23.24L1187,41.32V23.24h17M1147.77,9.37V147.5H1212V15.24h-33V27.45l-19.22-11.13-12-7Z"/><path class="cls-1" d="M1261.27,23.24V72.55l-15.69,9v32.72h-17V72.85l15.69-9.11V40.28H1230V53.87h-17V23.24h48.27m-15.69,96.23v20l-17-9.57V119.47h17m23.69-104.23H1205V61.87h26.51l-7,4.06-4,2.32v66.37l4.08,2.29,17,9.56,11.92,6.69v-67l11.65-6.66,4-2.3v-62Z"/><path class="cls-1" d="M23.69,23.24l17,9.57V43.27h-17v-20m17,25.26V89.89L25,99v23.46H39.23v-13.6h17V139.5H8V90.19l15.69-9V48.5h17m-25-38.92v67L4,83.24l-4,2.3v62H64.27V100.86H37.75l7-4.06,4-2.31V28.12l-4.08-2.29-17-9.56L15.69,9.58Z"/></g></g></svg>