<svg xmlns="http://www.w3.org/2000/svg" viewBox="0 0 814.37 152.08"><defs><style>.cls-1{fill:#74818c;}</style></defs><title>Quines-Somos</title><g id="Capa_2" data-name="Capa 2"><g id="Capa_8" data-name="Capa 8"><path class="cls-1" d="M23.56,23.12l16.9,9.48V43H23.56V23.12m16.9,25V89.21L24.9,98.26v23.26H39V108h16.9v30.38H8V89.51l15.56-8.89V48.16h16.9M15.56,9.45V76L4,82.57l-4,2.3v61.55H63.87V100H37.75l6.73-3.91,4-2.31V27.92l-4.09-2.29L27.48,16.14,15.56,9.45Z"/><path class="cls-1" d="M112.05,23.12V81.36l4.59,2.82v18.37l-4.59-2.66v38.53H64.18V23.12h47.87m-31,98.4H95V92.62h4.45l-8.74-5V69.21l4.44,2.52V40H81.07v81.51m39-106.4H56.18v131.3h63.87V113.78l4.59,2.67V79.7l-3.82-2.34-.77-.48V15.12Z"/><path class="cls-1" d="M173.4,23.12v115.3H125.53V23.12h16.9v98.4h14.08V23.12H173.4m8-8H117.53v131.3H181.4V15.12Z"/><path class="cls-1" d="M200.52,23.12V63.28L205,65.8V84.18l-4.45-2.52v56.76H183.63l.15-17.64V75.14h5l-5.18-3V72l-4.3-2.52V51.13l4.3,2.37V23.12h16.89m8-8H175.63V40l-4.3-2.37V74.09l3.95,2.32.35.2v.2l.15.09v43.85l-.15,17.6-.07,8.07h33v-51L213,97.91V61.14l-4.06-2.3-.39-.22V15.12Z"/><path class="cls-1" d="M256.39,8l-9.63,9.78H229.57L240.09,8h16.3m6.52,15.12V58.83H246V40H231.94V63.43l17.19,9.93V91.73l-17.19-9.92v39.71H246V98.7l16.89,9.63v30.09H215V74.69h4.45L215,72.17l-4.29-2.52V51.28L215,53.65V23.12h47.87M275.5,0H237l-2.31,2.14-10.52,9.78-3.43,3.2H207v25l-4.29-2.37V74.24l3.95,2.31.34.21v69.66h63.87V103.69l-4-2.31-9.75-5.55V68.74l-3.3-1.91h17.08V15.12h-10.3l1.48-1.51L275.5,0Z"/><path class="cls-1" d="M319.82,23.12v115.3H302.93v-76h5.18L288.85,51.28v87.14H272V23.12l31,17.93V23.12h16.89M264,9.24V146.42h63.87V15.12H294.93V27.17l-19-11-12-7Z"/><path class="cls-1" d="M377.92,23.12V58.83H361V40H346.94V63.43l17.19,9.93V91.73l-17.19-9.92v39.71H361V98.7l16.9,9.63v30.09H330.05V74.69h4.44l-4.44-2.52-4.3-2.52V51.28l4.3,2.37V23.12h47.87m8-8H322.05v25l-4.3-2.37V74.24l3.95,2.31.35.21v69.66h63.87V103.69l-4-2.31-9.75-5.55V68.74l-3.3-1.91h17.09V15.12Z"/><path class="cls-1" d="M434.68,23.12v36h-16.9V40H403.7V63.28l31,17.93v57.21H386.81V93.22H403.7v28.3h14.08V92.92H423l-.3-.15L417.78,90,386.81,72V23.12h47.87m8-8H378.81V76.64l4,2.31,10.83,6.27H378.81v61.2h63.87V76.6l-4-2.31-12.37-7.16h16.36v-52Z"/><path class="cls-1" d="M522.56,23.12v36H505.67V40H491.59V63.28l31,17.93v57.21H474.69V93.22h16.9v28.3h14.08V92.92h5.18l-.29-.15L505.67,90,474.69,72V23.12h47.87m8-8H466.69V76.64l4,2.31,10.83,6.27H466.69v61.2h63.87V76.6l-4-2.31L514.2,67.13h16.36v-52Z"/><path class="cls-1" d="M579.32,23.12v115.3H531.45V23.12h47.87m-31,98.4h14.08V40H548.35v81.51m39-106.4H523.45v131.3h63.87V15.12Z"/><path class="cls-1" d="M588.21,23.12l23.57,13.63.44.3.3-.3,23.56-13.48V138.42H619.19v-87l-7,4h-.15l-7-4.14v87.14h-16.9V23.12m-8-13.87V146.42h63.87V9.47l-12,6.85L612.17,27.73,592.22,16.19l-12-6.94Z"/><path class="cls-1" d="M692.84,23.12v115.3H645V23.12h47.87m-31,98.4H676V40H661.87v81.51m39-106.4H637v131.3h63.87V15.12Z"/><path class="cls-1" d="M749.6,23.12v36H732.71V40H718.63V63.28l31,17.93v57.21H701.73V93.22h16.9v28.3h14.08V92.92h5.19l-.3-.15L732.71,90,701.73,72V23.12H749.6m8-8H693.73V76.64l4,2.31,10.83,6.27H693.73v61.2H757.6V76.6l-4-2.31-12.36-7.16H757.6v-52Z"/><path class="cls-1" d="M806.37,23.12V72l-15.57,8.9v32.45H773.91V72.32l15.56-9V40H775.39V53.5H758.5V23.12h47.87M790.8,118.56v19.86l-16.89-9.49V118.56H790.8M814.37,15.12H750.5V61.5h26.11l-6.72,3.9-4,2.32v65.9l4.08,2.29,16.9,9.48,11.91,6.69V85.56L810.33,79l4-2.3V15.12Z"/></g></g></svg>
