<svg xmlns="http://www.w3.org/2000/svg" viewBox="0 0 432.99 138.93"><defs><style>.cls-1{fill:#74818c;}</style></defs><title>Reparto</title><g id="Capa_2" data-name="Capa 2"><g id="Capa_10" data-name="Capa 10"><path class="cls-1" d="M59,8V59.2l-8.69,4.89L59,69.15v61.78H41V82.42h5.53l-.31-.15-5.22-3L26,70.57v60.36H8V8H59M41,59.51V26H26V50.82l15,8.69M67,0H0V138.93H67V64.55l-.6-.35.6-.33V0Z"/><path class="cls-1" d="M121,8V46.08H103V26H88V51l18.33,10.59V81.16L88,70.57v42.35h15V88.59l18,10.27v32.07h-51V63h4.74L69.94,60.3l-4.58-2.68V38l4.58,2.53V8h51m8-8h-67V27l-4.58-2.53V62.2l4,2.32.63.37v74h67V94.21l-4-2.3-10.66-6.08V57l-4-2.31-1-.56H129V0Z"/><path class="cls-1" d="M182.92,8V89.85l-33-19.12v60.2h-18V63h4.74l-4.74-2.69-4.58-2.68V38l4.58,2.53V8h51m-18,51.67V26h-15V51l15,8.69M190.92,0h-67V27l-4.58-2.53V62.2l4,2.32.63.37v74h34V84.61l21,12.16,12,7V0Z"/><path class="cls-1" d="M243.44,8V130.93h-18V82.42H231l-.31-.15-5.22-3-15-8.69v60.36h-18V8h51m-18,51.51V26h-15V50.82l15,8.69M251.44,0h-67V138.93h67V0Z"/><path class="cls-1" d="M304,8V59.2l-8.69,4.89L304,69.15v61.78h-18V82.42h5.53l-.31-.15-5.22-3-15-8.69v60.36h-18V8h51m-18,51.51V26h-15V50.82l15,8.69M312,0h-67V138.93h67V64.55l-.6-.35.6-.33V0Z"/><path class="cls-1" d="M364.47,8V26H347.88V130.93h-18V26H313.44V8h51m8-8h-67V34h16.43V138.93h34V34h16.59V0Z"/><path class="cls-1" d="M425,8V130.93H374V8h51M392,112.92h15V26H392v86.91M433,0H366V138.93h67V0Z"/></g></g></svg>