<svg xmlns="http://www.w3.org/2000/svg" viewBox="0 0 804.09 264.58"><defs><style>.cls-1{fill:#74818c;}</style></defs><title>Recurso 1</title><g id="Capa_2" data-name="Capa 2"><g id="Capa_3" data-name="Capa 3"><path class="cls-1" d="M180.05,13.88V50.33H163V31H148.7V54.53l31.35,18.15v57.9H131.6V84.83h17.1v28.65H163V84.53h5.25l-.3-.15-5-2.85L131.6,63.38V13.88h48.45m8-8H123.6V68l4,2.31,11.27,6.53H123.6v61.75h64.45V68.06l-4-2.31-12.83-7.42h16.82V5.88Z"/><path class="cls-1" d="M238.85,13.88V50h-17.1V31H207.5v23.7l17.4,10.05v18.6l-17.4-10v40.2h14.25V90.38l17.1,9.75v30.45H190.4V66.08h4.5l-4.5-2.55L186.05,61V42.38l4.35,2.4V13.88h48.45m8-8H182.4V31.22l-4.35-2.4V65.56L182,67.88l.4.23v70.47h64.45V95.48l-4-2.3-9.91-5.66V60.11L229.29,58h17.56V5.88Z"/><path class="cls-1" d="M265,13.88v99.6H279.2V90.38l17.1,9.75v30.45H247.85V13.88H265m8-8h-33.1v132.7H304.3V95.48l-4-2.3-17.1-9.75L273,77.6V5.88Z"/><path class="cls-1" d="M355.09,13.88V50H338V31H323.75v23.7l17.39,10.05v18.6l-17.39-10v40.2H338V90.38l17.09,9.75v30.45H306.64V66.08h4.5l-4.5-2.55L302.29,61V42.38l4.35,2.4V13.88h48.45m8-8H298.64V31.22l-4.35-2.4V65.56l4,2.32.39.23v70.47h64.45V95.48l-4-2.3-9.92-5.66V60.11L345.54,58h17.55V5.88Z"/><path class="cls-1" d="M412.54,13.88v36.3h-17.1V31H381.19v82.5h14.25V62.78l17.1,9.9v57.9H364.09V13.88h48.45m8-8H356.09v132.7h64.45V68.06l-4-2.31-13.08-7.57h17.07V5.88Z"/><path class="cls-1" d="M470,13.88v36.3h-17.1V31H438.64v82.5h14.25V62.78l17.1,9.9v57.9H421.54V13.88H470m8-8H413.54v132.7H478V68.06l-4-2.31-13.09-7.57H478V5.88Z"/><path class="cls-1" d="M497.44,13.88V54.53l4.5,2.55v18.6l-4.5-2.55v57.45h-17.1l.15-17.85V66.53h5.1l-5.25-3v-.15L476,60.83V42.23l4.35,2.4V13.88h17.1m8-8h-33.1v25.2L468,28.68V65.41l4,2.32.39.23v.21l.15.08v44.44l-.15,17.82-.07,8.07h33.17V86.85l4.5,2.55v-37l-4.05-2.29-.45-.26v-44Z"/><path class="cls-1" d="M559.24,13.88v116.7H510.79V13.88h48.45m-31.35,99.6h14.25V31H527.89v82.5M567.24,5.88H502.79v132.7h64.45V5.88Z"/><path class="cls-1" d="M616.69,13.88v116.7h-17.1v-77h5.25l-19.5-11.25v88.2h-17.1V13.88L599.59,32V13.88h17.1M560.24,0V138.58h64.45V5.88h-33.1V18.15L572.25,7,560.24,0Z"/><path class="cls-1" d="M675.49,13.88V50h-17.1V31H644.14v23.7l17.4,10.05v18.6l-17.4-10v40.2h14.25V90.38l17.1,9.75v30.45H627V66.08h4.5L627,63.53,622.69,61V42.38l4.35,2.4V13.88h48.45m8-8H619V31.22l-4.35-2.4V65.56l3.95,2.32.4.23v70.47h64.45V95.48l-4-2.3-9.91-5.66V60.11L665.93,58h17.56V5.88Z"/><path class="cls-1" d="M60.8,139.88V176H43.7V157H29.45v23.7l17.4,10v18.6l-17.4-10.05v40.2H43.7v-23.1l17.1,9.75v30.45H12.35v-64.5h4.5l-4.5-2.55L8,187v-18.6l4.35,2.4v-30.9H60.8m8-8H4.35v25.34L0,154.82v36.74l4,2.32.4.23v70.47H68.8v-43.1l-4-2.3-9.91-5.66V186.11L51.24,184H68.8V131.88Z"/><path class="cls-1" d="M86.9,139.88v99.6h14.25v-23.1l17.1,9.75v30.45H69.8V139.88H86.9m8-8H61.8v132.7h64.45v-43.1l-4-2.3-17.1-9.75L94.9,203.6V131.88Z"/><path class="cls-1" d="M207.2,139.88V157H191.45v99.6h-17.1V157h-15.6v-17.1H207.2m8-8H150.75V165h15.6v99.6h33.1V165H215.2v-33.1Z"/><path class="cls-1" d="M234.65,139.88v40.65l4.5,2.55v18.6l-4.5-2.55v57.45h-17.1l.15-17.85v-46.2h5.1l-5.25-3v-.15l-4.35-2.55v-18.6l4.35,2.4V139.88h17.1m8-8h-33.1v25.2l-4.35-2.4v36.73l4,2.32.4.23v.21l.15.08v44.44l-.15,17.82-.07,8.07h33.17V212.85l4.5,2.55v-37l-4.06-2.29-.44-.26v-44Z"/><path class="cls-1" d="M297.8,139.88v77.7l-31.35-18.15v57.15h-17.1v-64.5h4.5l-4.5-2.55L245,187v-18.6l4.35,2.4v-30.9H297.8m-17.1,49.05V157H266.45v23.7l14.25,8.25m25.1-57.05H241.35v25.34l-4.35-2.4v36.74l3.95,2.32.4.23v70.47h33.1V213.3l19.34,11.2,12,6.95V131.88Z"/><path class="cls-1" d="M355.25,139.88v116.7H306.8V139.88h48.45m-31.35,99.6h14.25V157H323.9v82.5m39.35-107.6H298.8v132.7h64.45V131.88Z"/><path class="cls-1" d="M428.59,139.88l15.6,9v98.7l-15.6,9H395.74V139.88h32.85m-15.75,99.6h9l5.25-3V160l-5.25-3h-9v82.5m17.9-107.6h-43v132.7h43l1.85-1.07,15.6-9,4-2.31V144.26l-4-2.31-15.6-9-1.85-1.07Z"/><path class="cls-1" d="M503,139.88V176h-17.1V157H471.64v23.7l17.4,10v18.6l-17.4-10.05v40.2h14.25v-23.1l17.1,9.75v30.45H454.54v-64.5H459l-4.5-2.55L450.19,187v-18.6l4.35,2.4v-30.9H503m8-8H446.54v25.34l-4.35-2.4v36.74l4,2.32.39.23v70.47H511v-43.1l-4-2.3L497,213.52V186.11l-3.6-2.08H511V131.88Z"/><path class="cls-1" d="M591.94,139.88v116.7h-17.1v-46h5.25l-.3-.15-4.95-2.85-14.25-8.25v57.3h-17.1V139.88h48.45m-17.1,48.9V157H560.59v23.55l14.25,8.25m25.1-56.9H535.49v132.7h64.45V131.88Z"/><path class="cls-1" d="M649.39,139.88v116.7H600.94V139.88H618v99.6h14.25v-99.6h17.1m8-8H592.94v132.7h64.45V131.88Z"/><path class="cls-1" d="M691.24,139.88l15.6,9v98.7l-15.6,9H658.39V139.88h32.85m-15.75,99.6h9l5.25-3V160l-5.25-3h-9v82.5m17.89-107.6h-43v132.7h43l1.86-1.07,15.6-9,4-2.31V144.26l-4-2.31-15.6-9-1.86-1.07Z"/><path class="cls-1" d="M734.29,139.88v40.65l4.5,2.55v18.6l-4.5-2.55v57.45h-17.1l.15-17.85v-46.2h5.1l-5.25-3v-.15l-4.35-2.55v-18.6l4.35,2.4V139.88h17.1m8-8h-33.1v25.2l-4.35-2.4v36.73l3.95,2.32.4.23v.21l.15.08v44.44l-.15,17.82-.07,8.07h33.17V212.85l4.5,2.55v-37l-4.06-2.29-.44-.26v-44Z"/><path class="cls-1" d="M796.09,139.88v116.7H747.64V139.88h48.45m-31.35,99.6H779V157H764.74v82.5m39.35-107.6H739.64v132.7h64.45V131.88Z"/></g></g></svg>