<svg xmlns="http://www.w3.org/2000/svg" viewBox="0 0 30 25.3"><defs><style>.cls-1{fill:#d7d7d9;}</style></defs><title>Twitter-icon</title><g id="Capa_2" data-name="Capa 2"><g id="Capa_13" data-name="Capa 13"><path class="cls-1" d="M20,2a4.65,4.65,0,0,1,3.72,1.86,12.51,12.51,0,0,0,3.71-1.24c0,.62-2.48,3.09-2.48,3.09L28,4.48,25.52,7.57a18.81,18.81,0,0,1-1.23,6.19A15.91,15.91,0,0,1,9.8,23.3,11.48,11.48,0,0,1,2,20.57c7.74-.31,7.12-2.17,7.12-2.17-3.1,0-4.33-3.71-4.33-3.71A4.56,4.56,0,0,0,6.25,15a1.43,1.43,0,0,0,1-.28c-3.71-.62-4.33-4.95-4.33-4.95.62.62,2.47.62,2.47.62C1.69,6,4.17,3.55,4.17,3.55c4.56,4.56,8.7,5,10.06,5a4.13,4.13,0,0,0,.46,0A5.46,5.46,0,0,1,20,2m0-2a7.59,7.59,0,0,0-5.56,2.59,7.24,7.24,0,0,0-1.7,3.75A14.37,14.37,0,0,1,5.58,2.13a2,2,0,0,0-1.41-.58,2,2,0,0,0-1.42.58,5.81,5.81,0,0,0-1,6A2,2,0,0,0,1,10a9,9,0,0,0,1.88,4.26,1.94,1.94,0,0,0,.06,1,8.83,8.83,0,0,0,1.8,3c-.73.09-1.64.17-2.77.21A2,2,0,0,0,.59,22,13.52,13.52,0,0,0,9.8,25.3,18.18,18.18,0,0,0,12.88,25,17.88,17.88,0,0,0,26.14,14.5,20.76,20.76,0,0,0,27.5,8.31l2.06-2.58a2,2,0,0,0,.05-2.45A2.16,2.16,0,0,0,29.36,3a2.82,2.82,0,0,0,0-.39,2,2,0,0,0-.95-1.7,2,2,0,0,0-1.05-.3,2,2,0,0,0-.89.21,16.11,16.11,0,0,1-2.1.86A6.74,6.74,0,0,0,20,0Z"/></g></g></svg>